<?xml version="1.0" encoding="UTF-8" standalone="no"?>
<!-- Created with Inkscape (http://www.inkscape.org/) -->

<svg
   xmlns:dc="http://purl.org/dc/elements/1.1/"
   xmlns:cc="http://creativecommons.org/ns#"
   xmlns:rdf="http://www.w3.org/1999/02/22-rdf-syntax-ns#"
   xmlns:svg="http://www.w3.org/2000/svg"
   xmlns="http://www.w3.org/2000/svg"
   xmlns:sodipodi="http://sodipodi.sourceforge.net/DTD/sodipodi-0.dtd"
   xmlns:inkscape="http://www.inkscape.org/namespaces/inkscape"
   width="100.60115mm"
   height="100.60115mm"
   viewBox="0 0 100.60115 100.60115"
   version="1.1"
   id="svg8"
   inkscape:version="0.92.4 (5da689c313, 2019-01-14)"
   sodipodi:docname="logo.svg"
   inkscape:export-filename="C:\Users\Kalle\Dropbox\Doc\Light Screamer\logow.png"
   inkscape:export-xdpi="599.89771"
   inkscape:export-ydpi="599.89771">
  <defs
     id="defs2">
    <clipPath
       clipPathUnits="userSpaceOnUse"
       id="clipPath4591">
      <rect
         style="opacity:1;fill:#00b900;fill-opacity:1;stroke:none;stroke-width:0.02155003;stroke-linecap:round;stroke-linejoin:miter;stroke-miterlimit:4;stroke-dasharray:none;stroke-dashoffset:1.82551181;stroke-opacity:1;paint-order:normal"
         id="rect4593"
         width="0.75726104"
         height="1.0093648"
         x="0.14027046"
         y="-1.0160396"
         transform="matrix(0.99994769,0.01022795,0.00575663,-0.99998343,0,0)" />
    </clipPath>
  </defs>
  <sodipodi:namedview
     id="base"
     pagecolor="#000000"
     bordercolor="#666666"
     borderopacity="1.0"
     inkscape:pageopacity="0"
     inkscape:pageshadow="2"
     inkscape:zoom="1.979899"
     inkscape:cx="70.851692"
     inkscape:cy="115.54478"
     inkscape:document-units="mm"
     inkscape:current-layer="g1134"
     showgrid="false"
     inkscape:window-width="1920"
     inkscape:window-height="1017"
     inkscape:window-x="-8"
     inkscape:window-y="-8"
     inkscape:window-maximized="1"
     showguides="false"
     fit-margin-top="5"
     fit-margin-left="5"
     fit-margin-right="5"
     fit-margin-bottom="5"
     inkscape:snap-others="false"
     inkscape:snap-nodes="false" />
  <metadata
     id="metadata5">
    <rdf:RDF>
      <cc:Work
         rdf:about="">
        <dc:format>image/svg+xml</dc:format>
        <dc:type
           rdf:resource="http://purl.org/dc/dcmitype/StillImage" />
        <dc:title></dc:title>
      </cc:Work>
    </rdf:RDF>
  </metadata>
  <g
     inkscape:label="Layer 1"
     inkscape:groupmode="layer"
     id="layer1"
     transform="translate(-61.174856,-13.855353)"
     style="display:inline"
     sodipodi:insensitive="true">
    <flowRoot
       xml:space="preserve"
       id="flowRoot4534"
       style="font-style:normal;font-weight:normal;font-size:40px;line-height:1.25;font-family:sans-serif;letter-spacing:0px;word-spacing:0px;fill:#000000;fill-opacity:1;stroke:none"
       transform="translate(-0.07281356,-0.69572917)"><flowRegion
         id="flowRegion4536"><rect
           id="rect4538"
           width="25.253813"
           height="48.487324"
           x="200.01021"
           y="501.27588" /></flowRegion><flowPara
         id="flowPara4540" /></flowRoot>    <g
       id="g3541"
       transform="matrix(0.89207322,0,0,0.89207322,10.483778,-15.65265)" />
    <g
       transform="translate(-38.772884,-19.243406)"
       id="g9080">
      <circle
         transform="matrix(0.89207321,0,0,0.89207321,8.6316933,-15.65265)"
         style="display:inline;opacity:1;fill:#ffffff;fill-opacity:1;stroke:none;stroke-width:0.53457743;stroke-miterlimit:4;stroke-dasharray:none;stroke-dashoffset:0;stroke-opacity:1;enable-background:new"
         id="path3511"
         cx="158.75"
         cy="111.03571"
         r="50.781231" />
    </g>
  </g>
  <g
     inkscape:groupmode="layer"
     id="layer2"
     inkscape:label="bird"
     transform="translate(-59.322772,-13.855353)">
    <g
       id="g1134"
       transform="translate(-1.6251066,-0.40090429)">
      <path
         inkscape:connector-curvature="0"
         id="path923"
         d="m 107.2785,48.830388 1.67727,-0.803201 h 0.82682 l 0.8977,0.779576 2.22061,0.448847 -0.68509,0.708705 -1.46465,0.755952 -1.51191,-0.165365 -1.98437,-1.110302 z"
         style="fill:#000000;fill-opacity:1;stroke:none;stroke-width:0.26458332px;stroke-linecap:butt;stroke-linejoin:miter;stroke-opacity:1" />
      <path
         inkscape:connector-curvature="0"
         id="path935"
         d="m 108.93215,52.279419 1.5119,0.944941 2.59859,-0.803198 0.51971,-1.228423 -0.56696,-0.850448 -1.37016,0.283483 -1.32292,0.661458 h -0.85045 z"
         style="fill:#000000;fill-opacity:1;stroke:none;stroke-width:0.26458332px;stroke-linecap:butt;stroke-linejoin:miter;stroke-opacity:1" />
      <path
         inkscape:connector-curvature="0"
         id="path939"
         d="m 111.50715,53.585868 -0.26727,1.703843 -0.0334,0.367496 0.96885,0.200453 1.26953,-0.902036 0.10023,-0.935442 -0.0668,-1.369756 z"
         style="fill:#000000;fill-opacity:1;stroke:none;stroke-width:0.26458332px;stroke-linecap:butt;stroke-linejoin:miter;stroke-opacity:1" />
      <g
         id="upper-outer-left">
        <path
           style="fill:#000000;fill-opacity:1;stroke:none;stroke-width:0.26458332px;stroke-linecap:butt;stroke-linejoin:miter;stroke-opacity:1"
           d="m 95.076953,37.715525 0.874072,1.984375 v 0.236235 l 1.594585,1.854447 2.385976,1.653645 1.694694,1.619806 2.92326,1.018963 2.73116,1.436574 1.08578,-0.167042 -0.14199,-0.751697 -1.23612,-0.985555 -1.01061,-0.501131 -2.12145,-1.536801 -0.70993,-0.492775 c 0,0 -1.70385,-1.461633 -1.91265,-1.578563 -0.20881,-0.11693 -1.19437,-0.743341 -1.19437,-0.743341 L 98.8283,40.25318 97.892855,39.63512 96.890595,38.649564 96.397816,38.198546 Z"
           id="path847"
           inkscape:connector-curvature="0" />
        <path
           style="fill:#000000;fill-opacity:1;stroke:none;stroke-width:0.26458332px;stroke-linecap:butt;stroke-linejoin:miter;stroke-opacity:1"
           d="m 107.37299,48.050812 -3.23642,-1.630024 -3.77976,-1.133928 -2.031621,-0.779576 -1.228421,-0.779576 -0.708705,0.04725 -0.755954,0.330729 1.015812,0.803199 1.133927,1.913503 1.370163,1.015812 0.118118,0.566963 0.992191,0.188989 1.29929,-0.755952 -0.21261,0.685081 0.21261,0.165364 0.51972,-0.354351 -1.01581,1.063056 2.22061,0.637837 3.9215,-0.02363 -0.54334,-0.992187 z"
           id="path927"
           inkscape:connector-curvature="0" />
        <path
           style="fill:#000000;fill-opacity:1;stroke:none;stroke-width:0.26458332px;stroke-linecap:butt;stroke-linejoin:miter;stroke-opacity:1"
           d="m 108.93215,50.956503 -1.32292,-0.472469 -2.45685,0.236236 -1.74814,-0.04725 -3.16555,-1.181174 -2.315099,0.755952 1.22842,0.944941 1.228419,1.653646 0.94495,0.09449 -0.47248,0.519718 h 0.99219 l 0.8977,-0.330729 2.97656,-0.04725 2.07887,-0.566965 z"
           id="path929"
           inkscape:connector-curvature="0" />
        <path
           style="fill:#000000;fill-opacity:1;stroke:none;stroke-width:0.26458332px;stroke-linecap:butt;stroke-linejoin:miter;stroke-opacity:1"
           d="m 109.6881,53.744079 -1.13393,-1.039434 -1.98437,0.519715 -1.79539,0.566965 -2.45685,-0.377975 -1.32291,1.08668 -0.37798,1.653646 0.89769,-0.566965 1.74814,0.850448 1.13393,-0.614212 0.8032,0.897694 z"
           id="path931"
           inkscape:connector-curvature="0" />
        <path
           style="fill:#000000;fill-opacity:1;stroke:none;stroke-width:0.26458332px;stroke-linecap:butt;stroke-linejoin:miter;stroke-opacity:1"
           d="m 111.01101,53.838572 -3.30729,1.889882 -2.78757,2.126115 0.28348,1.795385 -0.0473,1.086684 1.18118,-0.566965 3.44903,-2.220611 0.85045,-1.795386 z"
           id="path933"
           inkscape:connector-curvature="0" />
        <path
           style="fill:#000000;fill-opacity:1;stroke:none;stroke-width:0.26458332px;stroke-linecap:butt;stroke-linejoin:miter;stroke-opacity:1"
           d="m 111.44033,56.258565 -0.53454,0.400902 -0.86863,1.5368 -1.77066,0.935445 -1.33634,1.570207 -0.46773,1.202714 0.26727,0.334087 -0.20045,0.7684 0.93545,-0.300678 0.13363,1.269529 0.86863,-0.53454 0.4009,-0.367493 0.70158,-0.167045 1.03567,-1.469983 1.20271,-1.937705 0.60136,-0.768397 -0.16704,-2.037932 0.16704,-0.567947 z"
           id="path937"
           inkscape:connector-curvature="0" />
        <path
           style="fill:#000000;fill-opacity:1;stroke:none;stroke-width:0.26458332px;stroke-linecap:butt;stroke-linejoin:miter;stroke-opacity:1"
           d="m 113.74553,59.031486 -1.63703,0.501128 -0.70158,1.637028 -1.20271,1.971111 0.0668,1.469983 1.9377,-0.734992 2.00452,-0.400904 1.70384,-1.904294 -0.16704,-1.369756 -1.9377,0.768398 z"
           id="path941"
           inkscape:connector-curvature="0" />
        <path
           style="fill:#000000;fill-opacity:1;stroke:none;stroke-width:0.26458332px;stroke-linecap:butt;stroke-linejoin:miter;stroke-opacity:1"
           d="m 96.773913,33.574063 0.200453,0.634765 0.200451,0.300678 0.467723,2.104748 0.167044,1.002261 0.701583,0.400904 1.804073,2.271791 2.63928,1.77066 2.57247,2.204974 1.73725,1.069078 1.33635,0.03341 -2.83974,-3.040192 -2.63928,-3.073599 -2.37202,-1.436573 -2.33861,-2.372017 -0.968851,-1.603618 z"
           id="path943"
           inkscape:connector-curvature="0" />
        <path
           style="fill:#000000;fill-opacity:1;stroke:none;stroke-width:0.26458332px;stroke-linecap:butt;stroke-linejoin:miter;stroke-opacity:1"
           d="m 97.64254,31.569542 2.97337,0.935443 2.27179,2.572469 2.23839,1.971113 3.57473,5.846521 0.20045,1.202711 0.60136,1.135896 -0.66818,0.133636 -2.83974,-3.173825 -3.20723,-4.009044 -1.43657,-1.637026 0.16704,-0.03341 -1.804072,-1.302939 -0.7684,-1.469983 z"
           id="path945"
           inkscape:connector-curvature="0" />
        <path
           inkscape:label="#outer-left-999"
           style="fill:#000000;fill-opacity:1;stroke:none;stroke-width:0.26458332px;stroke-linecap:butt;stroke-linejoin:miter;stroke-opacity:1"
           d="m 100.88318,29.598429 2.03793,3.207234 0.80181,1.804069 3.34087,4.075861 2.23838,4.576991 1.33635,0.167042 -0.16704,-0.701583 0.66817,-0.300678 -2.90656,-5.813111 -2.60587,-3.441095 -1.36976,-1.937704 -1.70384,-1.202713 z"
           id="outer-left-947"
           inkscape:connector-curvature="0" />
        <path
           style="fill:#000000;fill-opacity:1;stroke:none;stroke-width:0.26458332px;stroke-linecap:butt;stroke-linejoin:miter;stroke-opacity:1"
           d="m 106.89675,31.803402 0.46772,2.071339 1.60361,2.572469 1.30295,2.739513 2.00452,4.176087 0.66817,2.505652 1.5368,1.637025 1.36976,-0.634765 -1.33635,-2.171565 -0.50113,-1.135896 -1.26953,-4.242903 -1.57021,-3.107009 z"
           id="path949"
           inkscape:connector-curvature="0" />
        <path
           style="fill:#000000;fill-opacity:1;stroke:none;stroke-width:0.26458332px;stroke-linecap:butt;stroke-linejoin:miter;stroke-opacity:1"
           d="m 114.88142,41.05761 -0.26726,2.639287 1.53679,3.27405 1.30294,0.7684 -0.43431,-2.873148 -1.00226,-2.438834 z"
           id="path951"
           inkscape:connector-curvature="0" />
      </g>
      <path
         inkscape:connector-curvature="0"
         id="path953"
         d="m 113.54508,47.104582 -1.50339,-2.505651 -1.20272,-1.436574 0.20046,0.7684 -1.83748,-0.133636 1.23612,1.837479 1.63702,1.637027 1.26953,0.46772 z"
         style="fill:#000000;fill-opacity:1;stroke:none;stroke-width:0.26458332px;stroke-linecap:butt;stroke-linejoin:miter;stroke-opacity:1" />
      <path
         inkscape:connector-curvature="0"
         id="path955"
         d="m 108.50036,46.002095 0.93545,-0.434313 1.03567,1.169305 1.9377,0.968851 -0.33409,0.968854 -1.10248,-0.133636 -0.90204,-0.902033 -0.86862,-0.267272 z"
         style="fill:#000000;fill-opacity:1;stroke:#000000;stroke-width:0.26458332px;stroke-linecap:butt;stroke-linejoin:miter;stroke-opacity:1" />
      <path
         inkscape:connector-curvature="0"
         id="path957"
         d="m 116.18436,47.338442 3.80859,2.639288 0.93545,1.403164 -1.1359,1.236123 -0.80181,-1.637027 -1.9377,-2.438834 -1.67043,-1.035669 z"
         style="fill:#000000;fill-opacity:1;stroke:none;stroke-width:0.26458332px;stroke-linecap:butt;stroke-linejoin:miter;stroke-opacity:1" />
      <path
         inkscape:connector-curvature="0"
         id="path959"
         d="m 112.59379,48.783141 1.39379,-0.472471 1.48828,-0.212612 -1.34654,-0.519718 -0.68508,0.0945 z"
         style="fill:#000000;fill-opacity:1;stroke:none;stroke-width:0.26458332px;stroke-linecap:butt;stroke-linejoin:miter;stroke-opacity:1" />
      <path
         inkscape:connector-curvature="0"
         id="path961"
         d="m 112.99539,49.728079 1.29929,-0.472469 1.11031,-0.803198 1.15755,0.02363 -0.63783,-0.236235 -1.15756,0.118117 -0.85044,0.401601 z"
         style="fill:#000000;fill-opacity:1;stroke:none;stroke-width:0.26458332px;stroke-linecap:butt;stroke-linejoin:miter;stroke-opacity:1" />
      <path
         inkscape:connector-curvature="0"
         id="path963"
         d="m 113.77497,50.767516 1.79538,-1.81901 -0.59059,0.09449 -1.15755,0.897694 z"
         style="fill:#000000;fill-opacity:1;stroke:none;stroke-width:0.26458332px;stroke-linecap:butt;stroke-linejoin:miter;stroke-opacity:1" />
      <path
         inkscape:connector-curvature="0"
         id="path965"
         d="m 116.75153,48.972128 -1.25205,1.393788 -1.53552,2.196986 -0.0709,-0.87407 1.2048,-1.842635 1.41741,-1.08668 z"
         style="fill:#000000;fill-opacity:1;stroke:none;stroke-width:0.26458332px;stroke-linecap:butt;stroke-linejoin:miter;stroke-opacity:1" />
      <path
         inkscape:connector-curvature="0"
         id="path967"
         d="m 117.29487,49.562715 -1.86626,2.763951 -1.41741,1.535528 0.14174,-0.87407 1.55915,-2.078868 1.39379,-1.67727 z"
         style="fill:#000000;fill-opacity:1;stroke:none;stroke-width:0.26458332px;stroke-linecap:butt;stroke-linejoin:miter;stroke-opacity:1" />
      <path
         inkscape:connector-curvature="0"
         id="path969"
         d="m 117.76734,50.224173 -1.2048,2.244236 -1.88988,2.244233 0.25986,-0.803199 1.01581,-1.984375 z"
         style="fill:#000000;fill-opacity:1;stroke:none;stroke-width:0.26458332px;stroke-linecap:butt;stroke-linejoin:miter;stroke-opacity:1" />
      <path
         inkscape:connector-curvature="0"
         id="path971"
         d="m 112.87727,58.138051 -0.0236,-1.511906 1.11031,-1.464656 h 0.56696 l 0.61421,1.08668 -0.68508,1.228424 -0.73233,1.086681 -0.85044,0.448847 z"
         style="fill:#000000;fill-opacity:1;stroke:none;stroke-width:0.26458332px;stroke-linecap:butt;stroke-linejoin:miter;stroke-opacity:1" />
      <path
         inkscape:connector-curvature="0"
         id="path973"
         d="m 114.34193,60.122426 1.46466,-0.661458 0.21261,-1.535528 -0.37798,-0.968566 -0.8032,0.448847 -0.44884,1.322917 z"
         style="fill:#000000;fill-opacity:1;stroke:none;stroke-width:0.26458332px;stroke-linecap:butt;stroke-linejoin:miter;stroke-opacity:1" />
      <path
         inkscape:connector-curvature="0"
         id="path975"
         d="m 118.40517,50.554902 -0.73233,2.267858 -1.27567,1.370163 -0.59058,2.291482 -0.4016,-0.826823 0.42522,-1.488281 c 0,0 0.66146,-1.13393 1.01581,-1.535528 0.35436,-0.4016 1.03944,-1.13393 1.03944,-1.13393 z"
         style="fill:#000000;fill-opacity:1;stroke:none;stroke-width:0.26458332px;stroke-linecap:butt;stroke-linejoin:miter;stroke-opacity:1" />
      <path
         inkscape:connector-curvature="0"
         id="path977"
         d="m 118.8304,51.688832 -0.73233,2.29148 -1.27567,1.299295 -0.30711,0.307104 0.0236,-0.968563 1.25205,-1.322916 0.59058,-1.039435 z"
         style="fill:#000000;fill-opacity:1;stroke:none;stroke-width:0.26458332px;stroke-linecap:butt;stroke-linejoin:miter;stroke-opacity:1" />
      <path
         inkscape:connector-curvature="0"
         id="path979"
         d="m 116.4208,57.760075 0.63783,-1.535528 0.0709,-0.779576 -0.82682,0.496094 -0.25986,0.944941 z"
         style="fill:#000000;fill-opacity:1;stroke:none;stroke-width:0.26458332px;stroke-linecap:butt;stroke-linejoin:miter;stroke-opacity:1" />
      <path
         inkscape:connector-curvature="0"
         id="path981"
         d="m 117.50748,56.106429 0.94494,-1.228423 0.8032,-1.866257 -0.11812,-1.063059 -0.25986,0.944941 -0.63783,1.464657 -0.77958,0.826823 z"
         style="fill:#000000;fill-opacity:1;stroke:none;stroke-width:0.26458332px;stroke-linecap:butt;stroke-linejoin:miter;stroke-opacity:1" />
      <path
         id="path983"
         d="m 282.7168,120.74219 -7.32422,0.25195 -2.27344,0.88477 -7.70117,0.5039 -1.89453,1.51563 -6.1875,-0.25196 -5.17578,2.01954 -5.17774,5.93554 -13.76367,6.43946 0.88477,4.41992 -7.07227,5.80859 -3.15625,9.34375 -6.1875,8.33203 -3.15625,7.07227 v 7.70117 l 0.88281,0.50586 -1.76758,6.94531 0.37891,3.0293 v 2.27344 l -0.125,4.79882 3.0293,8.33399 5.30469,5.42969 1.00976,-2.40039 3.66211,1.64257 4.29297,-11.11132 1.76758,-5.17774 9.4707,-6.5664 5.68164,-3.78711 4.54492,-13.76368 1.89453,-6.94531 11.11133,-11.49023 2.65235,-2.65235 5.30273,-12.5 2.14648,-3.78906 7.44922,-5.55469 6.31446,-3.03125 z m -20.58203,4.92383 3.15625,1.26367 1.13671,2.90429 -1.26367,2.39844 -2.01953,0.88477 -3.78711,-1.64258 -0.2539,-3.91406 z"
         style="opacity:1;fill:#000000;fill-opacity:1;stroke:none;stroke-width:0.99999994px;stroke-linecap:butt;stroke-linejoin:miter;stroke-opacity:1"
         inkscape:connector-curvature="0"
         transform="matrix(0.26458333,0,0,0.26458333,59.322772,13.855353)" />
      <path
         inkscape:connector-curvature="0"
         id="path994"
         d="m 118.52297,70.056353 0.46772,0.902036 -1.00226,1.603615 0.10023,0.768401 0.10023,1.069078 0.73499,0.434313 -0.30068,-1.069078 0.53454,-2.138156 0.93544,0.167042 0.93544,1.035669 0.63477,0.634767 v 1.102485 l 0.70158,-0.801807 -0.13364,-1.503391 -1.9377,-1.536801 -0.86862,-0.400904 -0.33409,-0.501129 z"
         style="fill:#000000;fill-opacity:1;stroke:none;stroke-width:0.26458332px;stroke-linecap:butt;stroke-linejoin:miter;stroke-opacity:1" />
      <path
         inkscape:connector-curvature="0"
         id="path996"
         d="m 124.30268,63.875744 -0.0668,3.073601 -1.03567,2.772921 1.06908,1.637025 0.53453,1.703845 -1.33634,-0.7684 -0.56795,0.367495 -1.9043,-2.271792 -0.20045,-2.639287 1.36976,-2.438834 z"
         style="fill:#000000;fill-opacity:1;stroke:none;stroke-width:0.26458332px;stroke-linecap:butt;stroke-linejoin:miter;stroke-opacity:1" />
      <path
         inkscape:connector-curvature="0"
         id="path998"
         d="m 123.70132,72.862682 1.90429,0.801809 1.00226,0.467723 0.53454,0.868624 0.90204,0.434314 -0.10023,1.236123 -0.53454,0.467719 -1.20271,-1.670433 -1.50339,-0.167045 -0.86863,0.601358 -0.20045,0.734992 -0.4009,-1.002263 0.83521,-0.835216 0.23387,-1.102487 z"
         style="fill:#000000;fill-opacity:1;stroke:none;stroke-width:0.26458332px;stroke-linecap:butt;stroke-linejoin:miter;stroke-opacity:1" />
      <g
         id="g1156">
        <path
           style="fill:#000000;fill-opacity:1;stroke:none;stroke-width:0.26458332px;stroke-linecap:butt;stroke-linejoin:miter;stroke-opacity:1"
           d="m 115.64982,64.811189 -0.0334,-1.069078 -1.93771,0.06681 -1.23612,0.56795 -2.43883,0.601355 -2.37202,1.169305 0.20045,0.567947 -1.26953,0.968854 -0.0668,0.501128 1.06908,0.233863 0.43431,0.567947 0.50113,0.367495 0.66818,-0.801809 -0.0334,0.835218 0.26727,-0.133635 1.33635,-1.603616 3.17382,-1.737252 z"
           id="path988"
           inkscape:connector-curvature="0" />
        <path
           style="fill:#000000;fill-opacity:1;stroke:none;stroke-width:0.26458332px;stroke-linecap:butt;stroke-linejoin:miter;stroke-opacity:1"
           d="m 115.64982,65.679814 -2.7061,1.436573 -2.03793,1.002261 -1.46998,1.737254 -0.93545,1.937702 1.40317,0.501132 0.63476,0.567946 0.3675,-0.400904 1.20271,-0.968852 1.36976,-1.5368 1.63702,-2.672694 z"
           id="path990"
           inkscape:connector-curvature="0" />
        <path
           style="fill:#000000;fill-opacity:1;stroke:none;stroke-width:0.26458332px;stroke-linecap:butt;stroke-linejoin:miter;stroke-opacity:1"
           d="m 116.55186,68.486143 -0.3675,2.772924 -1.70384,4.142676 -0.93544,1.670434 -0.86863,-0.03341 -0.4009,-1.403167 0.83521,-3.441094 1.06908,-2.405425 1.20272,-2.104747 0.43431,-1.102487 0.33408,1.670433 z"
           id="path992"
           inkscape:connector-curvature="0" />
        <path
           style="fill:#000000;fill-opacity:1;stroke:none;stroke-width:0.26458332px;stroke-linecap:butt;stroke-linejoin:miter;stroke-opacity:1"
           d="m 117.32026,69.555221 0.83522,1.536801 -0.3675,2.037929 -0.0334,2.33861 -0.46772,4.109267 -0.70158,1.971114 -0.53454,-0.501131 -0.66817,0.835218 v -0.601355 l -0.7684,-1.169305 0.16704,-1.135896 -0.20045,-1.302938 0.33408,-2.539061 z"
           id="path1000"
           inkscape:connector-curvature="0" />
        <path
           style="fill:#000000;fill-opacity:1;stroke:none;stroke-width:0.26458332px;stroke-linecap:butt;stroke-linejoin:miter;stroke-opacity:1"
           d="m 119.45841,72.261327 0.40091,4.142676 1.63702,3.474506 -0.23386,3.80859 -1.20271,-1.102487 -0.96885,-2.372016 -0.96885,-2.706106 -0.0668,-2.338607 1.10249,0.300678 0.0668,-1.00226 -0.30067,-1.469983 z"
           id="path1002"
           inkscape:connector-curvature="0" />
        <path
           style="fill:#000000;fill-opacity:1;stroke:none;stroke-width:0.26458332px;stroke-linecap:butt;stroke-linejoin:miter;stroke-opacity:1"
           d="m 119.89273,72.294736 1.30294,1.369755 1.46998,3.207235 0.33409,3.942225 -0.96886,-0.734991 -1.26953,-2.305201 -0.86862,-2.639285 z"
           id="path1004"
           inkscape:connector-curvature="0" />
      </g>
      <path
         inkscape:connector-curvature="0"
         id="path1014"
         d="m 122.99974,73.230178 0.56794,0.734991 -0.46772,1.469983 0.23386,1.436574 0.90204,0.400904 0.46772,-0.968851 0.96885,2.906554 -1.87089,-0.334087 -0.56794,-0.935442 -0.20046,-1.102487 -0.90203,-1.703843 z"
         style="fill:#000000;fill-opacity:1;stroke:none;stroke-width:0.26458332px;stroke-linecap:butt;stroke-linejoin:miter;stroke-opacity:1" />
      <path
         inkscape:connector-curvature="0"
         id="path1016"
         d="m 130.50041,54.334666 2.31511,0.614211 1.55915,0.425223 1.48828,-0.188989 -0.35435,0.496093 -2.008,0.307108 -0.99219,1.015809 -0.11812,-1.204799 -0.68508,0.803201 -0.7087,-0.661458 -2.29149,-0.283483 z"
         style="fill:#000000;fill-opacity:1;stroke:none;stroke-width:0.26458332px;stroke-linecap:butt;stroke-linejoin:miter;stroke-opacity:1" />
      <path
         inkscape:connector-curvature="0"
         id="path1018"
         d="m 127.12225,58.374287 3.04743,-1.748142 -1.03943,-0.590587 -1.41741,0.637834 z"
         style="fill:#000000;fill-opacity:1;stroke:none;stroke-width:0.26458332px;stroke-linecap:butt;stroke-linejoin:miter;stroke-opacity:1" />
      <path
         inkscape:connector-curvature="0"
         id="path1020"
         d="m 131.091,56.720641 -1.79539,0.755952 -2.43322,1.677268 -0.75595,1.771763 3.47265,-2.787573 z"
         style="fill:#000000;fill-opacity:1;stroke:none;stroke-width:0.26458332px;stroke-linecap:butt;stroke-linejoin:miter;stroke-opacity:1" />
      <path
         inkscape:connector-curvature="0"
         id="path1022"
         d="m 131.98869,56.862381 -2.88206,2.645833 -1.63003,1.889882 -1.9135,1.535528 0.56696,-1.653646 2.05525,-1.393788 0.85044,-0.944941 2.12612,-1.889879 z"
         style="fill:#000000;fill-opacity:1;stroke:none;stroke-width:0.26458332px;stroke-linecap:butt;stroke-linejoin:miter;stroke-opacity:1" />
      <path
         inkscape:connector-curvature="0"
         id="path1024"
         d="m 132.55566,57.216735 -2.29148,2.716702 -1.58278,0.755954 0.89769,-1.086683 2.19699,-2.173362 z"
         style="fill:#000000;fill-opacity:1;stroke:none;stroke-width:0.26458332px;stroke-linecap:butt;stroke-linejoin:miter;stroke-opacity:1" />
      <path
         inkscape:connector-curvature="0"
         id="path1030"
         d="m 129.41373,61.067367 -1.81901,2.007997 -1.03943,0.04725 1.70089,-1.913504 z"
         style="fill:#000000;fill-opacity:1;stroke:none;stroke-width:0.26458332px;stroke-linecap:butt;stroke-linejoin:miter;stroke-opacity:1" />
      <path
         inkscape:connector-curvature="0"
         id="path1032"
         d="m 130.73665,60.004308 3.54352,-1.370163 0.61422,-1.110306 -1.13393,-0.826822 -0.28348,-0.401601 -0.99219,1.441035 z"
         style="fill:#000000;fill-opacity:1;stroke:none;stroke-width:0.26458332px;stroke-linecap:butt;stroke-linejoin:miter;stroke-opacity:1" />
      <path
         inkscape:connector-curvature="0"
         id="path1036"
         d="m 135.83933,57.854569 2.50409,-0.543341 2.19698,0.685081 -0.28348,0.732329 -1.9135,0.944941 z"
         style="fill:#000000;fill-opacity:1;stroke:none;stroke-width:0.26458332px;stroke-linecap:butt;stroke-linejoin:miter;stroke-opacity:1" />
      <path
         inkscape:connector-curvature="0"
         id="path1046"
         d="m 135.20149,58.185298 1.13393,0.448847 1.39379,1.393788 -0.30711,0.661458 -1.55915,0.165365 -0.85045,-0.377979 -0.63783,-1.630021 z"
         style="fill:#000000;fill-opacity:1;stroke:none;stroke-width:0.26458332px;stroke-linecap:butt;stroke-linejoin:miter;stroke-opacity:1" />
      <path
         inkscape:connector-curvature="0"
         id="path1048"
         d="m 134.06756,59.177485 0.77958,1.322917 -0.4016,0.826823 -1.51191,0.188989 0.4016,-1.582777 z"
         style="fill:#000000;fill-opacity:1;stroke:none;stroke-width:0.26458332px;stroke-linecap:butt;stroke-linejoin:miter;stroke-opacity:1" />
      <path
         inkscape:connector-curvature="0"
         id="path1050"
         d="m 132.67377,60.216919 -0.0709,1.488282 -0.82682,0.968565 -0.89769,0.118115 -0.0709,-0.661458 0.68508,-1.204799 z"
         style="fill:#000000;fill-opacity:1;stroke:none;stroke-width:0.26458332px;stroke-linecap:butt;stroke-linejoin:miter;stroke-opacity:1" />
      <path
         inkscape:connector-curvature="0"
         id="path1052"
         d="m 130.94926,60.571273 -0.8032,2.267858 -2.008,0.637833 0.66146,-1.181176 1.15755,-1.464657 z"
         style="fill:#000000;fill-opacity:1;stroke:none;stroke-width:0.26458332px;stroke-linecap:butt;stroke-linejoin:miter;stroke-opacity:1" />
      <g
         id="upper-outer-right">
        <path
           style="fill:#000000;fill-opacity:1;stroke:none;stroke-width:0.26458332px;stroke-linecap:butt;stroke-linejoin:miter;stroke-opacity:1"
           d="m 126.24818,63.429718 -1.15755,0.826823 -0.42523,2.527715 -0.7087,2.267857 0.66146,0.755952 1.15755,-1.110305 0.8032,-3.401785 0.56696,-1.41741 z"
           id="path1026"
           inkscape:connector-curvature="0" />
        <path
           style="fill:#000000;fill-opacity:1;stroke:none;stroke-width:0.26458332px;stroke-linecap:butt;stroke-linejoin:miter;stroke-opacity:1"
           d="m 128.09081,64.091176 0.21261,1.157552 -0.33072,1.96075 0.16536,2.385976 -0.8032,0.874069 -1.37016,-0.850444 0.16536,-1.086684 1.01581,-3.827007 z"
           id="path1028"
           inkscape:connector-curvature="0" />
        <path
           style="fill:#000000;fill-opacity:1;stroke:none;stroke-width:0.26458332px;stroke-linecap:butt;stroke-linejoin:miter;stroke-opacity:1"
           d="m 134.06756,56.484405 1.32292,0.897694 2.43322,-0.448847 1.32292,-1.015812 0.3071,-1.157552 z"
           id="path1034"
           inkscape:connector-curvature="0" />
        <path
           style="fill:#000000;fill-opacity:1;stroke:none;stroke-width:0.26458332px;stroke-linecap:butt;stroke-linejoin:miter;stroke-opacity:1"
           d="m 129.90982,63.406093 1.08669,1.511906 -0.28349,3.519903 -1.03943,1.063059 -1.13393,-0.448848 0.0472,-2.905691 0.0472,-1.653646 z"
           id="path1054"
           inkscape:connector-curvature="0" />
        <path
           style="fill:#000000;fill-opacity:1;stroke:none;stroke-width:0.26458332px;stroke-linecap:butt;stroke-linejoin:miter;stroke-opacity:1"
           d="m 132.53203,62.366659 1.22843,2.69308 1.06305,2.882069 -0.94494,0.944941 -0.85044,0.496094 -1.46466,-1.228424 -0.14174,-3.260045 -0.35435,-1.322916 0.44884,-0.472469 0.51972,-0.09449 z"
           id="path1056"
           inkscape:connector-curvature="0" />
        <path
           style="fill:#000000;fill-opacity:1;stroke:none;stroke-width:0.26458332px;stroke-linecap:butt;stroke-linejoin:miter;stroke-opacity:1"
           d="m 132.98088,62.177672 1.74814,4.275855 1.22842,1.795386 3.89788,1.559152 -0.14174,-2.244233 -1.22842,-1.228423 -2.92932,-3.378163 -1.46466,-1.133927 z"
           id="path1058"
           inkscape:connector-curvature="0" />
        <path
           style="fill:#000000;fill-opacity:1;stroke:none;stroke-width:0.26458332px;stroke-linecap:butt;stroke-linejoin:miter;stroke-opacity:1"
           d="m 135.27236,61.846943 3.26005,3.897879 1.84263,1.346538 3.47266,1.015813 1.13393,0.07087 -0.87407,-1.81901 -0.77958,-0.73233 -1.67727,-0.779576 -1.18118,-1.228424 -2.48046,-1.133927 -2.008,-1.27567 z"
           id="path1060"
           inkscape:connector-curvature="0" />
        <path
           style="fill:#000000;fill-opacity:1;stroke:none;stroke-width:0.26458332px;stroke-linecap:butt;stroke-linejoin:miter;stroke-opacity:1"
           d="m 137.37485,61.090989 0.73233,1.015812 2.36235,1.01581 1.13393,0.377978 c 0,0 1.2993,1.228421 1.44104,1.252045 0.14174,0.02363 0.51972,0.118118 0.51972,0.118118 l 1.79538,-0.0945 2.92932,0.283483 1.03943,-0.519716 -1.81901,-0.755954 -1.72452,-0.590587 -2.10249,-1.228424 -4.22861,-0.68508 -1.74814,-0.637836 z"
           id="path1062"
           inkscape:connector-curvature="0" />
        <path
           style="fill:#000000;fill-opacity:1;stroke:none;stroke-width:0.26458332px;stroke-linecap:butt;stroke-linejoin:miter;stroke-opacity:1"
           d="m 138.48516,60.098801 0.56696,0.448848 3.23643,0.921316 3.14192,0.637836 1.72452,0.354351 3.33091,-0.212611 1.65365,-0.850445 0.42522,-1.228423 -1.77176,0.661458 -1.63002,0.354354 -2.26786,-0.259861 -2.43322,-0.992187 -1.72452,-0.803198 -2.45684,-0.165365 -0.59059,0.283483 2.12611,0.637833 1.11031,0.496094 -2.4096,-0.566965 -1.25204,-0.354351 z"
           id="path1064"
           inkscape:connector-curvature="0" />
        <path
           style="fill:#000000;fill-opacity:1;stroke:none;stroke-width:0.26458332px;stroke-linecap:butt;stroke-linejoin:miter;stroke-opacity:1"
           d="m 140.96563,58.06718 3.80338,-0.377976 2.14974,-1.299292 0.85045,-1.937128 1.39379,-0.850448 -0.4016,0.850448 -0.35436,1.653645 -1.46465,1.41741 -0.99219,0.354354 1.48828,0.212611 1.72452,-0.637836 1.13392,-2.740326 0.61422,-0.897695 2.03162,-0.826823 -0.89769,0.661459 -0.68509,1.630024 -0.37797,1.653645 -1.91351,1.27567 -0.51972,0.236234 0.77958,0.165364 -1.6064,0.259861 -3.14193,0.02363 -2.19698,-0.04725 -1.01581,-0.425222 z"
           id="path1066"
           inkscape:connector-curvature="0" />
        <path
           style="fill:#000000;fill-opacity:1;stroke:none;stroke-width:0.26458332px;stroke-linecap:butt;stroke-linejoin:miter;stroke-opacity:1"
           d="m 144.50915,59.34285 5.14993,-0.448847 3.44903,-1.606399 1.63003,-0.425223 1.08668,-0.897694 -0.59059,0.826823 -1.79539,1.417412 -4.13411,1.866257 -2.55134,0.377976 -1.74814,-0.566965 z"
           id="path1068"
           inkscape:connector-curvature="0" />
      </g>
    </g>
  </g>
  <g
     inkscape:groupmode="layer"
     id="layer3"
     inkscape:label="text">
    <g
       aria-label="light"
       transform="rotate(-90)"
       style="font-style:normal;font-variant:normal;font-weight:normal;font-stretch:normal;font-size:10.58333302px;line-height:1.25;font-family:'Asimov Pro';-inkscape-font-specification:'Asimov Pro';font-variant-ligatures:normal;font-variant-caps:normal;font-variant-numeric:normal;font-feature-settings:normal;text-align:start;letter-spacing:0px;word-spacing:0px;writing-mode:lr-tb;text-anchor:start;fill:#000000;fill-opacity:1;stroke:none;stroke-width:0.26458332"
       id="text893">
      <path
         d="m -53.159705,14.865471 v 7.69697 h -1.601029 v -7.69697 z"
         style="font-style:normal;font-variant:normal;font-weight:bold;font-stretch:normal;font-family:Inter;-inkscape-font-specification:'Inter Bold';stroke-width:0.26458332"
         id="path899" />
      <path
         d="m -51.887525,22.562441 v -5.772727 h 1.60103 v 5.772727 z m 0.804273,-6.516868 q -0.353279,0 -0.608842,-0.236772 -0.255563,-0.24053 -0.255563,-0.575018 0,-0.334487 0.255563,-0.571259 0.255563,-0.236772 0.608842,-0.236772 0.357037,0 0.612601,0.236772 0.255563,0.236772 0.255563,0.571259 0,0.334488 -0.255563,0.575018 -0.255564,0.236772 -0.612601,0.236772 z"
         style="font-style:normal;font-variant:normal;font-weight:bold;font-stretch:normal;font-family:Inter;-inkscape-font-specification:'Inter Bold';stroke-width:0.26458332"
         id="path901" />
      <path
         d="m -46.413582,24.809896 q -1.165068,0 -1.830285,-0.458511 -0.665216,-0.458511 -0.808031,-1.112453 l 1.480764,-0.199189 q 0.09772,0.233014 0.379587,0.424686 0.28563,0.195431 0.815548,0.195431 0.522402,0 0.860648,-0.248047 0.342004,-0.248046 0.342004,-0.815548 v -1.056078 h -0.06765 q -0.157848,0.357037 -0.556227,0.650184 -0.398378,0.289388 -1.089903,0.289388 -0.650183,0 -1.18386,-0.304422 -0.529918,-0.304421 -0.845614,-0.928296 -0.311938,-0.623876 -0.311938,-1.582239 0,-0.98467 0.319455,-1.638612 0.323212,-0.653942 0.853131,-0.980913 0.533676,-0.330729 1.165068,-0.330729 0.484819,0 0.81179,0.165365 0.326971,0.161606 0.529918,0.402136 0.202948,0.240531 0.30818,0.477303 h 0.06013 v -0.969638 h 1.589755 v 5.829101 q 0,0.717833 -0.364554,1.20641 -0.360795,0.488577 -0.995945,0.736624 -0.635151,0.248047 -1.461974,0.248047 z m 0.03383,-3.532789 q 0.578776,0 0.894472,-0.428444 0.319454,-0.428445 0.319454,-1.191377 0,-0.759174 -0.315696,-1.213926 -0.315696,-0.454753 -0.89823,-0.454753 -0.593809,0 -0.905747,0.466027 -0.308179,0.466028 -0.308179,1.202652 0,0.747899 0.311937,1.18386 0.311938,0.435961 0.901989,0.435961 z"
         style="font-style:normal;font-variant:normal;font-weight:bold;font-stretch:normal;font-family:Inter;-inkscape-font-specification:'Inter Bold';stroke-width:0.26458332"
         id="path903" />
      <path
         d="m -40.71602,19.225083 v 3.337358 h -1.60103 v -7.69697 h 1.555931 v 2.942738 h 0.06765 q 0.199189,-0.511127 0.631392,-0.800515 0.435961,-0.293146 1.093661,-0.293146 0.901989,0 1.450698,0.578776 0.54871,0.578776 0.544952,1.593513 v 3.675604 h -1.60103 v -3.389974 q 0.0038,-0.533677 -0.270597,-0.830581 -0.270596,-0.296905 -0.759173,-0.296905 -0.488578,0 -0.800515,0.311938 -0.30818,0.308179 -0.311938,0.868164 z"
         style="font-style:normal;font-variant:normal;font-weight:bold;font-stretch:normal;font-family:Inter;-inkscape-font-specification:'Inter Bold';stroke-width:0.26458332"
         id="path905" />
      <path
         d="m -32.631947,16.789714 v 1.202651 h -1.086145 v 2.796165 q 0,0.330729 0.150332,0.447236 0.150331,0.116507 0.390861,0.116507 0.112749,0 0.225498,-0.01879 0.112748,-0.02255 0.172881,-0.03382 l 0.251805,1.191376 q -0.120265,0.03758 -0.338246,0.08644 -0.21798,0.05262 -0.529918,0.06389 -0.871923,0.03758 -1.401841,-0.375829 -0.52616,-0.417169 -0.522402,-1.266542 v -3.006629 h -0.78924 v -1.202651 h 0.78924 v -1.383049 h 1.60103 v 1.383049 z"
         style="font-style:normal;font-variant:normal;font-weight:bold;font-stretch:normal;font-family:Inter;-inkscape-font-specification:'Inter Bold';stroke-width:0.26458332"
         id="path907" />
    </g>
    <g
       aria-label="screamer"
       transform="rotate(90)"
       style="font-style:normal;font-variant:normal;font-weight:normal;font-stretch:normal;font-size:10.58333302px;line-height:1.25;font-family:'Asimov Pro';-inkscape-font-specification:'Asimov Pro';font-variant-ligatures:normal;font-variant-caps:normal;font-variant-numeric:normal;font-feature-settings:normal;text-align:start;letter-spacing:0px;word-spacing:0px;writing-mode:lr-tb;text-anchor:start;fill:#000000;fill-opacity:1;stroke:none;stroke-width:0.26458332"
       id="text897">
      <path
         d="m 37.39378,-29.122283 -1.465731,0.0902 q -0.06013,-0.278113 -0.304421,-0.477302 -0.244289,-0.199189 -0.661459,-0.199189 -0.37207,0 -0.631392,0.157848 -0.255563,0.15409 -0.251805,0.413411 -0.0038,0.206706 0.161606,0.349521 0.169123,0.142815 0.57126,0.229255 l 1.044803,0.210464 q 1.664921,0.342004 1.668679,1.563447 0,0.567502 -0.334487,0.995946 -0.330729,0.428445 -0.909505,0.668975 -0.578776,0.236772 -1.326675,0.236772 -1.146278,0 -1.826527,-0.477302 -0.68025,-0.481061 -0.792999,-1.307884 l 1.574722,-0.08268 q 0.07517,0.353279 0.345762,0.533677 0.274355,0.180397 0.7028,0.180397 0.420928,0 0.676491,-0.165364 0.259322,-0.165365 0.26308,-0.420928 -0.01127,-0.428445 -0.740382,-0.575018 l -0.999704,-0.199189 q -1.676195,-0.334488 -1.668679,-1.649888 -0.0038,-0.834339 0.665217,-1.3154 0.672733,-0.48106 1.781427,-0.48106 1.093661,0 1.721295,0.462269 0.631392,0.462269 0.736624,1.259026 z"
         style="font-style:normal;font-variant:normal;font-weight:bold;font-stretch:normal;font-family:Inter;-inkscape-font-specification:'Inter Bold';stroke-width:0.26458332"
         id="path910" />
      <path
         d="m 41.152066,-24.882937 q -0.886955,0 -1.525864,-0.375829 -0.63515,-0.379586 -0.977154,-1.05232 -0.338246,-0.672733 -0.338246,-1.548413 0,-0.886956 0.342004,-1.555931 0.345762,-0.672733 0.980913,-1.048562 0.63515,-0.379586 1.510831,-0.379586 0.755415,0 1.322916,0.274354 0.57126,0.274355 0.898231,0.770449 0.330729,0.496094 0.364553,1.165069 h -1.510831 q -0.06389,-0.432203 -0.338245,-0.695283 -0.270597,-0.266838 -0.710316,-0.266838 -0.556227,0 -0.894472,0.447236 -0.338246,0.447236 -0.338246,1.266542 0,0.826823 0.334487,1.281575 0.338246,0.450995 0.898231,0.450995 0.413411,0 0.695283,-0.248047 0.281871,-0.251805 0.353278,-0.714075 h 1.510831 q -0.03758,0.661459 -0.360795,1.165069 -0.319454,0.50361 -0.883197,0.785482 -0.563743,0.278113 -1.334192,0.278113 z"
         style="font-style:normal;font-variant:normal;font-weight:bold;font-stretch:normal;font-family:Inter;-inkscape-font-specification:'Inter Bold';stroke-width:0.26458332"
         id="path912" />
      <path
         d="m 44.765658,-24.995686 v -5.772727 h 1.552172 v 1.007221 h 0.06013 q 0.157848,-0.537435 0.52616,-0.81179 0.372071,-0.278113 0.860648,-0.278113 0.233013,0 0.432203,0.05637 0.199189,0.05637 0.357037,0.15409 l -0.481061,1.322917 q -0.112748,-0.05638 -0.248047,-0.09396 -0.13154,-0.04134 -0.296904,-0.04134 -0.484819,0 -0.823065,0.33073 -0.334487,0.330729 -0.338246,0.860647 v 3.26595 z"
         style="font-style:normal;font-variant:normal;font-weight:bold;font-stretch:normal;font-family:Inter;-inkscape-font-specification:'Inter Bold';stroke-width:0.26458332"
         id="path914" />
      <path
         d="m 51.654596,-24.882937 q -0.886955,0 -1.529622,-0.360795 -0.642667,-0.364554 -0.988429,-1.029771 -0.345762,-0.668975 -0.345762,-1.582238 0,-0.890714 0.345762,-1.563447 0.345762,-0.672733 0.973396,-1.048562 0.631392,-0.375828 1.480765,-0.375828 0.762932,0 1.375532,0.323212 0.616359,0.323213 0.977154,0.977155 0.360796,0.650183 0.360796,1.631096 v 0.439719 h -3.931167 v 0.0038 q 0,0.646425 0.353279,1.018496 0.353279,0.37207 0.954604,0.37207 0.402137,0 0.695283,-0.169123 0.293147,-0.169123 0.413412,-0.499852 l 1.480764,0.09772 q -0.169122,0.804273 -0.856889,1.285333 -0.687766,0.481061 -1.758878,0.481061 z m -1.281575,-3.581646 h 2.424094 q -0.0038,-0.514886 -0.330729,-0.849373 -0.326971,-0.334487 -0.849372,-0.334487 -0.533677,0 -0.875681,0.345762 -0.342004,0.345762 -0.368312,0.838098 z"
         style="font-style:normal;font-variant:normal;font-weight:bold;font-stretch:normal;font-family:Inter;-inkscape-font-specification:'Inter Bold';stroke-width:0.26458332"
         id="path916" />
      <path
         d="m 56.995121,-24.886695 q -0.826823,0 -1.371775,-0.432203 -0.544951,-0.432203 -0.544951,-1.289092 0,-0.646425 0.304421,-1.014737 0.304421,-0.368312 0.796757,-0.537435 0.496094,-0.172881 1.067353,-0.225497 0.751657,-0.07517 1.07487,-0.157848 0.323212,-0.08268 0.323212,-0.360796 v -0.02255 q 0,-0.357037 -0.225497,-0.552468 -0.221739,-0.19543 -0.631392,-0.19543 -0.432203,0 -0.687766,0.187914 -0.255564,0.187914 -0.338246,0.477302 L 55.281342,-29.1298 q 0.165365,-0.78924 0.819307,-1.251509 0.6577,-0.462269 1.694987,-0.462269 0.642667,0 1.202651,0.202947 0.559985,0.202947 0.901989,0.63515 0.345762,0.428445 0.345762,1.116211 v 3.893584 H 58.727691 V -25.7962 h -0.0451 q -0.210464,0.402136 -0.631392,0.6577 -0.41717,0.251805 -1.056078,0.251805 z m 0.458511,-1.104936 q 0.52616,0 0.864405,-0.304421 0.338246,-0.30818 0.338246,-0.762933 v -0.6126 q -0.09396,0.06389 -0.293146,0.112748 -0.195431,0.04886 -0.420928,0.08644 -0.221739,0.03383 -0.398378,0.06013 -0.420928,0.06013 -0.68025,0.236772 -0.255564,0.176639 -0.255564,0.514885 0,0.330729 0.236772,0.499852 0.240531,0.169123 0.608843,0.169123 z"
         style="font-style:normal;font-variant:normal;font-weight:bold;font-stretch:normal;font-family:Inter;-inkscape-font-specification:'Inter Bold';stroke-width:0.26458332"
         id="path918" />
      <path
         d="m 61.488152,-24.995686 v -5.772727 h 1.525864 v 1.018496 h 0.06765 q 0.180398,-0.511127 0.601326,-0.800515 0.424686,-0.293146 1.00722,-0.293146 0.593809,0 1.010979,0.296904 0.41717,0.293146 0.556227,0.796757 h 0.06013 q 0.17664,-0.496094 0.638909,-0.792999 0.466027,-0.300662 1.101177,-0.300662 0.808032,0 1.311642,0.514885 0.507369,0.511127 0.507369,1.450698 v 3.882309 h -1.597272 v -3.566613 q 0,-0.48106 -0.255563,-0.721591 -0.255564,-0.24053 -0.638909,-0.24053 -0.435961,0 -0.680249,0.278113 -0.244289,0.278113 -0.244289,0.725349 v 3.525272 h -1.552172 v -3.600437 q 0,-0.424687 -0.244289,-0.676492 -0.24053,-0.251805 -0.63515,-0.251805 -0.398378,0 -0.668975,0.293146 -0.270596,0.289388 -0.270596,0.770449 v 3.465139 z"
         style="font-style:normal;font-variant:normal;font-weight:bold;font-stretch:normal;font-family:Inter;-inkscape-font-specification:'Inter Bold';stroke-width:0.26458332"
         id="path920" />
      <path
         d="m 73.772108,-24.882937 q -0.886955,0 -1.529622,-0.360795 -0.642667,-0.364554 -0.988429,-1.029771 -0.345763,-0.668975 -0.345763,-1.582238 0,-0.890714 0.345763,-1.563447 0.345762,-0.672733 0.973396,-1.048562 0.631392,-0.375828 1.480764,-0.375828 0.762932,0 1.375533,0.323212 0.616359,0.323213 0.977154,0.977155 0.360796,0.650183 0.360796,1.631096 v 0.439719 h -3.931167 v 0.0038 q 0,0.646425 0.353279,1.018496 0.353278,0.37207 0.954604,0.37207 0.402137,0 0.695283,-0.169123 0.293146,-0.169123 0.413411,-0.499852 l 1.480765,0.09772 q -0.169123,0.804273 -0.856889,1.285333 -0.687766,0.481061 -1.758878,0.481061 z m -1.281575,-3.581646 h 2.424094 q -0.0038,-0.514886 -0.330729,-0.849373 -0.326971,-0.334487 -0.849373,-0.334487 -0.533676,0 -0.87568,0.345762 -0.342004,0.345762 -0.368312,0.838098 z"
         style="font-style:normal;font-variant:normal;font-weight:bold;font-stretch:normal;font-family:Inter;-inkscape-font-specification:'Inter Bold';stroke-width:0.26458332"
         id="path922" />
      <path
         d="m 77.466503,-24.995686 v -5.772727 h 1.552172 v 1.007221 h 0.06013 q 0.157848,-0.537435 0.52616,-0.81179 0.37207,-0.278113 0.860647,-0.278113 0.233014,0 0.432203,0.05637 0.19919,0.05637 0.357038,0.15409 l -0.481061,1.322917 q -0.112749,-0.05638 -0.248047,-0.09396 -0.13154,-0.04134 -0.296905,-0.04134 -0.484818,0 -0.823064,0.33073 -0.334488,0.330729 -0.338246,0.860647 v 3.26595 z"
         style="font-style:normal;font-variant:normal;font-weight:bold;font-stretch:normal;font-family:Inter;-inkscape-font-specification:'Inter Bold';stroke-width:0.26458332"
         id="path924" />
    </g>
  </g>
</svg>
